<?xml version="1.0" standalone="no"?>
<!DOCTYPE svg PUBLIC "-//W3C//DTD SVG 20010904//EN"
 "http://www.w3.org/TR/2001/REC-SVG-20010904/DTD/svg10.dtd">
<svg version="1.0" xmlns="http://www.w3.org/2000/svg"
 width="260.000000pt" height="260.000000pt" viewBox="0 0 260.000000 260.000000"
 preserveAspectRatio="xMidYMid meet">
<metadata>
Created by potrace 1.11, written by Peter Selinger 2001-2013
</metadata>
<g transform="translate(0.000000,260.000000) scale(0.100000,-0.100000)"
fill="#000000" stroke="none">
<path d="M1881 2569 c-59 -10 -202 -74 -241 -108 -124 -107 -179 -191 -214
-326 -17 -62 -22 -176 -11 -240 35 -205 196 -392 395 -458 222 -74 474 -3 629
176 198 230 183 579 -34 793 -142 141 -322 196 -524 163z"/>
<path d="M47 2355 c-28 -14 -34 -51 -11 -76 15 -17 32 -19 166 -19 81 0 148
-1 148 -3 0 -1 56 -283 125 -627 69 -344 128 -637 130 -653 15 -81 49 -143
116 -209 38 -38 75 -68 82 -68 8 0 29 -8 48 -17 31 -17 89 -18 703 -21 617 -3
670 -1 687 14 23 20 24 43 5 70 -14 18 -33 19 -668 20 -652 1 -653 1 -704 23
-28 12 -66 37 -83 55 l-33 34 44 6 c24 3 61 9 83 11 52 7 106 14 180 25 33 5
89 12 125 15 36 4 67 8 70 10 3 2 34 6 70 10 36 3 72 8 80 10 8 2 40 6 71 10
31 3 66 7 76 9 11 3 44 7 74 11 30 3 65 8 79 10 37 6 101 15 151 20 24 3 55 7
69 9 14 3 50 8 80 11 30 3 80 10 110 15 30 5 78 12 105 15 28 4 63 8 79 11 17
2 36 10 44 18 10 10 102 336 102 362 0 2 -26 -15 -57 -37 -127 -89 -238 -123
-403 -123 -161 0 -273 36 -405 129 -119 84 -232 250 -261 380 -13 56 -24 124
-23 132 1 4 1 29 0 54 l-1 46 -396 -1 c-388 -1 -397 -1 -404 19 -4 11 -18 75
-31 141 -12 67 -29 130 -36 140 -13 17 -30 19 -189 20 -107 0 -184 -4 -197
-11z"/>
<path d="M878 545 c-213 -42 -287 -291 -134 -448 123 -127 350 -84 422 80 87
197 -79 410 -288 368z"/>
<path d="M1905 538 c-221 -83 -236 -390 -25 -491 60 -28 168 -30 224 -2 86 42
144 128 153 228 9 93 -55 205 -141 249 -48 25 -165 34 -211 16z"/>
</g>
</svg>
